<svg width="65" height="100" viewBox="0 30 315 328" fill="none" xmlns="http://www.w3.org/2000/svg">
<path fill-rule="evenodd" clip-rule="evenodd" d="M175.578 172.824C168.604 137.717 153.853 104.411 132.79 75.31C110.25 44.17 80.22 18.78 46.07 1.01C45.9024 0.922456 45.7012 0.928961 45.5396 1.02715C45.378 1.12534 45.2795 1.30091 45.28 1.49V51.73C45.2804 52.4067 45.6127 53.0414 46.17 53.43C82.05 78.2233 107.527 110.72 122.6 150.92C126.196 160.515 129.009 170.457 131.046 180.558L83.6785 219.526C81.4134 221.26 80.0607 223.931 80.0034 226.783V236.874C80.0061 238.912 81.0429 240.809 82.7566 241.912C84.4703 243.015 86.6265 243.173 88.4824 242.331L135.972 220.78L141.772 220.779L142.274 254.661L126.504 267.625C123.726 269.815 122.004 273.539 122.004 277.375V284.47C121.985 286.473 122.918 288.365 124.517 289.57C125.691 290.455 127.686 291.337 130.54 290.53L157.334 283.09C157.536 283.035 157.735 282.969 157.93 282.891C157.949 282.888 157.968 282.888 157.986 282.891C158.181 282.966 158.38 283.034 158.579 283.09L185.204 290.523C188.115 291.378 190.155 290.5 191.358 289.608C193.087 288.312 194.075 286.255 194.006 284.095V277.375C194.006 272.238 192.592 270.224 189.42 267.7L173.38 254.462L174.129 220.771L179.73 220.77C179.781 220.77 179.831 220.761 179.876 220.743L227.532 242.338C229.388 243.179 231.545 243.02 233.258 241.915C234.971 240.811 236.006 238.912 236.007 236.874V226.892C235.951 224.047 234.606 221.381 232.35 219.646L175.578 172.824Z" fill="#FDC703"/>
<path d="M195.54 140.54C190.03 122.82 182.8 105.3 173.74 88.96C173.527 88.5733 173.54 88.1967 173.78 87.83C197.793 50.6833 229.467 21.7733 268.8 1.1C269.017 0.983801 269.28 0.990486 269.491 1.1176C269.702 1.24471 269.831 1.47352 269.83 1.72L269.81 51.81C269.809 52.4807 269.48 53.1058 268.93 53.48C236.463 75.8 212.383 104.84 196.69 140.6C196.25 141.607 195.867 141.587 195.54 140.54Z" fill="#FDC703"/>
<path d="M126.59 328.32C151.797 335.473 176.613 334.007 201.04 323.92C246.61 305.09 274.47 257.39 268.97 208.24C266.477 185.933 257.817 165.86 242.99 148.02C242.646 147.612 242.59 147.031 242.85 146.56C250.117 133.247 258.873 121.29 269.12 110.69C269.38 110.423 269.64 110.423 269.9 110.69C304.67 146.5 320.43 195.4 312.93 244.61C309.083 269.83 299.673 292.653 284.7 313.08C267.78 336.16 246.363 353.37 220.45 364.71C183.63 380.81 140.72 382.2 102.79 367.97C24.66 338.66 -16.82 254.74 7.21998 174.77C14.3666 150.977 26.94 129.703 44.94 110.95C45.0377 110.851 45.1709 110.795 45.31 110.795C45.449 110.795 45.5823 110.851 45.68 110.95C55.8733 121.397 64.6266 133.31 71.94 146.69C72.2733 147.31 72.22 147.897 71.78 148.45C52.3933 172.317 43.7466 199.147 45.84 228.94C49.07 275.13 81.41 315.51 126.59 328.32Z" fill="#029E9D"/>
</svg>
